<svg width="39" height="39" viewBox="0 0 39 39" fill="none" xmlns="http://www.w3.org/2000/svg">
<path fill-rule="evenodd" clip-rule="evenodd" d="M8.59646 9.94922H29.6749C30.5585 9.94922 31.2749 10.6656 31.2749 11.5492C31.2749 11.551 31.2749 11.5528 31.2749 11.5546L31.2269 25.9207C31.224 26.8023 30.5085 27.5154 29.6269 27.5154H8.58047C7.69681 27.5154 6.98047 26.799 6.98047 25.9154C6.98047 25.9148 6.98047 25.9142 6.98047 25.9136L6.99646 11.5474C6.99744 10.6645 7.7135 9.94922 8.59646 9.94922Z" stroke="white" stroke-width="2.4" stroke-linejoin="round"/>
<path d="M18.4427 21.6694C18.9473 22.0991 19.7046 22.0385 20.1344 21.534C20.5641 21.0295 20.5035 20.2721 19.999 19.8423L18.4427 21.6694ZM8.20043 9.79225C7.69591 9.3625 6.93853 9.42311 6.50878 9.92763C6.07903 10.4321 6.13964 11.1895 6.64416 11.6193L8.20043 9.79225ZM31.7413 11.6174C32.2448 11.1864 32.3035 10.4289 31.8725 9.92539C31.4415 9.42193 30.684 9.36318 30.1806 9.79416L31.7413 11.6174ZM18.4405 19.8443C17.937 20.2752 17.8783 21.0328 18.3093 21.5362C18.7403 22.0397 19.4978 22.0984 20.0012 21.6675L18.4405 19.8443ZM19.999 19.8423C16.0661 16.4923 13.1165 13.9798 11.1501 12.3048C10.1669 11.4673 9.42945 10.8391 8.93784 10.4204C8.69204 10.211 8.50768 10.054 8.38478 9.94928C8.32334 9.89695 8.27723 9.85767 8.24652 9.83151C8.23113 9.81841 8.21966 9.80863 8.21195 9.80207C8.20807 9.79876 8.20528 9.79638 8.20331 9.79471C8.20229 9.79384 8.20169 9.79332 8.20115 9.79287C8.20079 9.79256 8.20084 9.79261 8.20061 9.79241C8.20055 9.79235 8.2005 9.79232 8.20047 9.79229C8.20044 9.79226 8.20043 9.79225 7.42229 10.7058C6.64416 11.6193 6.64417 11.6193 6.6442 11.6193C6.64423 11.6193 6.64428 11.6194 6.64434 11.6194C6.64434 11.6194 6.64475 11.6198 6.64488 11.6199C6.6453 11.6203 6.64614 11.621 6.64704 11.6217C6.64891 11.6233 6.65189 11.6259 6.65568 11.6291C6.66334 11.6356 6.67491 11.6455 6.69025 11.6585C6.72098 11.6847 6.76705 11.724 6.82851 11.7763C6.95142 11.881 7.13576 12.038 7.38157 12.2474C7.87318 12.6662 8.61059 13.2943 9.5938 14.1318C11.5602 15.8068 14.5099 18.3193 18.4427 21.6694L19.999 19.8423ZM30.9609 10.7058C30.1806 9.79416 30.1805 9.79418 30.1805 9.7942C30.1805 9.79423 30.1804 9.79427 30.1804 9.79432C30.1803 9.79436 30.18 9.79463 30.1798 9.79478C30.1793 9.79522 30.1787 9.79577 30.1777 9.79662C30.1758 9.79825 30.1729 9.80071 30.1691 9.80398C30.1615 9.81052 30.15 9.82034 30.1347 9.83342C30.1041 9.8596 30.0583 9.89885 29.9971 9.9512C29.8748 10.0559 29.6914 10.2129 29.4468 10.4223C28.9576 10.841 28.2239 11.4692 27.2455 12.3067C25.2889 13.9817 22.3538 16.4942 18.4405 19.8443L20.0012 21.6675C23.9146 18.3174 26.8496 15.8049 28.8063 14.1299C29.7846 13.2924 30.5184 12.6642 31.0076 12.2455C31.2521 12.0361 31.4356 11.8791 31.5579 11.7744C31.619 11.7221 31.6649 11.6828 31.6955 11.6566C31.7107 11.6435 31.7222 11.6337 31.7298 11.6272C31.7337 11.6239 31.7365 11.6215 31.7384 11.6198C31.7394 11.619 31.7402 11.6184 31.7406 11.618C31.7409 11.6177 31.7409 11.6177 31.7411 11.6175C31.7412 11.6175 31.7412 11.6174 31.7413 11.6174C31.7413 11.6174 31.7413 11.6174 30.9609 10.7058Z" fill="white"/>
</svg>
